REM DIRINDEX 1\2\4,1\2\5,1\2\6,1\2\7,1\3\8,1\3\9
REM DIRNAME folder01,folder02,folder03,folder04,folder05,folder06,folder07,folder08,folder09
TITLE ""
FILE "Disc1Track04.mp3" MP3
  TRACK 01 AUDIO
    TITLE "0:"
    INDEX 01 00:00:00
  TRACK 02 AUDIO
    TITLE "4:cjc037_0188"
    INDEX 01 00:00:05
  TRACK 03 AUDIO
    TITLE "0:"
    INDEX 01 00:01:32
  TRACK 04 AUDIO
    TITLE "4:cjc037_0189"
    INDEX 01 00:02:32
  TRACK 05 AUDIO
    TITLE "0:"
    INDEX 01 00:04:01
  TRACK 06 AUDIO
    TITLE "5:cjc037_0190"
    INDEX 01 00:04:52
  TRACK 07 AUDIO
    TITLE "0:"
    INDEX 01 00:08:34
  TRACK 08 AUDIO
    TITLE "6:cjc037_0191"
    INDEX 01 00:11:68
  TRACK 09 AUDIO
    TITLE "0:"
    INDEX 01 00:15:23
  TRACK 10 AUDIO
    TITLE "7:cjc037_0192"
    INDEX 01 00:18:58
  TRACK 11 AUDIO
    TITLE "0:"
    INDEX 01 00:21:33
  TRACK 12 AUDIO
    TITLE "4:cjc037_0193"
    INDEX 01 00:23:69
  TRACK 13 AUDIO
    TITLE "0:"
    INDEX 01 00:25:33
  TRACK 14 AUDIO
    TITLE "5:cjc037_0194"
    INDEX 01 00:26:13
  TRACK 15 AUDIO
    TITLE "0:"
    INDEX 01 00:29:38
  TRACK 16 AUDIO
    TITLE "6:cjc037_0195"
    INDEX 01 00:32:72
  TRACK 17 AUDIO
    TITLE "0:"
    INDEX 01 00:35:51
  TRACK 18 AUDIO
    TITLE "7:cjc037_0196"
    INDEX 01 00:39:07
  TRACK 19 AUDIO
    TITLE "0:"
    INDEX 01 00:41:28
  TRACK 20 AUDIO
    TITLE "4:cjc037_0197"
    INDEX 01 00:43:60
  TRACK 21 AUDIO
    TITLE "0:"
    INDEX 01 00:45:28
  TRACK 22 AUDIO
    TITLE "5:cjc037_0198"
    INDEX 01 00:46:07
  TRACK 23 AUDIO
    TITLE "0:"
    INDEX 01 00:49:72
  TRACK 24 AUDIO
    TITLE "6:cjc037_0199"
    INDEX 01 00:53:29
  TRACK 25 AUDIO
    TITLE "0:"
    INDEX 01 00:55:69
  TRACK 26 AUDIO
    TITLE "7:cjc037_0200"
    INDEX 01 00:59:28
  TRACK 27 AUDIO
    TITLE "0:"
    INDEX 01 01:01:34
  TRACK 28 AUDIO
    TITLE "4:cjc037_0201"
    INDEX 01 01:03:69
  TRACK 29 AUDIO
    TITLE "0:"
    INDEX 01 01:05:01
  TRACK 30 AUDIO
    TITLE "5:cjc037_0202"
    INDEX 01 01:05:54
  TRACK 31 AUDIO
    TITLE "0:"
    INDEX 01 01:09:46
  TRACK 32 AUDIO
    TITLE "6:cjc037_0203"
    INDEX 01 01:13:06
  TRACK 33 AUDIO
    TITLE "0:"
    INDEX 01 01:16:01
  TRACK 34 AUDIO
    TITLE "7:cjc037_0204"
    INDEX 01 01:19:38
  TRACK 35 AUDIO
    TITLE "0:"
    INDEX 01 01:21:57
  TRACK 36 AUDIO
    TITLE "4:cjc037_0205"
    INDEX 01 01:24:16
  TRACK 37 AUDIO
    TITLE "0:"
    INDEX 01 01:25:58
  TRACK 38 AUDIO
    TITLE "5:cjc037_0206"
    INDEX 01 01:26:32
  TRACK 39 AUDIO
    TITLE "0:"
    INDEX 01 01:28:63
  TRACK 40 AUDIO
    TITLE "6:cjc037_0207"
    INDEX 01 01:32:23
  TRACK 41 AUDIO
    TITLE "0:"
    INDEX 01 01:33:70
  TRACK 42 AUDIO
    TITLE "7:cjc037_0208"
    INDEX 01 01:37:30
  TRACK 43 AUDIO
    TITLE "0:"
    INDEX 01 01:38:57
  TRACK 44 AUDIO
    TITLE "4:cjc037_0209"
    INDEX 01 01:41:16
  TRACK 45 AUDIO
    TITLE "0:"
    INDEX 01 01:42:41
  TRACK 46 AUDIO
    TITLE "5:cjc037_0210"
    INDEX 01 01:43:19
  TRACK 47 AUDIO
    TITLE "0:"
    INDEX 01 01:46:39
  TRACK 48 AUDIO
    TITLE "6:cjc037_0211"
    INDEX 01 01:50:02
  TRACK 49 AUDIO
    TITLE "0:"
    INDEX 01 01:53:06
  TRACK 50 AUDIO
    TITLE "7:cjc037_0212"
    INDEX 01 01:56:37
  TRACK 51 AUDIO
    TITLE "0:"
    INDEX 01 01:58:68
  TRACK 52 AUDIO
    TITLE "4:cjc037_0213"
    INDEX 01 02:01:27
  TRACK 53 AUDIO
    TITLE "0:"
    INDEX 01 02:02:60
  TRACK 54 AUDIO
    TITLE "5:cjc037_0214"
    INDEX 01 02:03:34
  TRACK 55 AUDIO
    TITLE "0:"
    INDEX 01 02:07:41
  TRACK 56 AUDIO
    TITLE "6:cjc037_0215"
    INDEX 01 02:11:00
  TRACK 57 AUDIO
    TITLE "0:"
    INDEX 01 02:14:41
  TRACK 58 AUDIO
    TITLE "7:cjc037_0216"
    INDEX 01 02:18:02
  TRACK 59 AUDIO
    TITLE "0:"
    INDEX 01 02:20:67
  TRACK 60 AUDIO
    TITLE "4:cjc037_0217"
    INDEX 01 02:23:28
  TRACK 61 AUDIO
    TITLE "0:"
    INDEX 01 02:24:63
  TRACK 62 AUDIO
    TITLE "5:cjc037_0218"
    INDEX 01 02:25:39
  TRACK 63 AUDIO
    TITLE "0:"
    INDEX 01 02:29:51
  TRACK 64 AUDIO
    TITLE "6:cjc037_0219"
    INDEX 01 02:33:15
  TRACK 65 AUDIO
    TITLE "0:"
    INDEX 01 02:36:25
  TRACK 66 AUDIO
    TITLE "7:cjc037_0220"
    INDEX 01 02:39:59
  TRACK 67 AUDIO
    TITLE "0:"
    INDEX 01 02:42:26
  TRACK 68 AUDIO
    TITLE "4:cjc037_0221"
    INDEX 01 02:44:60
  TRACK 69 AUDIO
    TITLE "0:"
    INDEX 01 02:46:14
  TRACK 70 AUDIO
    TITLE "5:cjc037_0222"
    INDEX 01 02:46:67
  TRACK 71 AUDIO
    TITLE "0:"
    INDEX 01 02:48:64
  TRACK 72 AUDIO
    TITLE "6:cjc037_0223"
    INDEX 01 02:52:22
  TRACK 73 AUDIO
    TITLE "0:"
    INDEX 01 02:54:25
  TRACK 74 AUDIO
    TITLE "7:cjc037_0224"
    INDEX 01 02:57:59
  TRACK 75 AUDIO
    TITLE "0:"
    INDEX 01 02:59:28
  TRACK 76 AUDIO
    TITLE "4:cjc037_0225"
    INDEX 01 03:01:62
  TRACK 77 AUDIO
    TITLE "0:"
    INDEX 01 03:03:26
  TRACK 78 AUDIO
    TITLE "5:cjc037_0226"
    INDEX 01 03:04:02
  TRACK 79 AUDIO
    TITLE "0:"
    INDEX 01 03:07:63
  TRACK 80 AUDIO
    TITLE "6:cjc037_0227"
    INDEX 01 03:11:24
  TRACK 81 AUDIO
    TITLE "0:"
    INDEX 01 03:15:12
  TRACK 82 AUDIO
    TITLE "7:cjc037_0228"
    INDEX 01 03:18:45
  TRACK 83 AUDIO
    TITLE "0:"
    INDEX 01 03:21:44
  TRACK 84 AUDIO
    TITLE "4:cjc037_0229"
    INDEX 01 03:24:03
  TRACK 85 AUDIO
    TITLE "0:"
    INDEX 01 03:25:37
  TRACK 86 AUDIO
    TITLE "5:cjc037_0230"
    INDEX 01 03:26:17
  TRACK 87 AUDIO
    TITLE "0:"
    INDEX 01 03:29:00
  TRACK 88 AUDIO
    TITLE "6:cjc037_0231"
    INDEX 01 03:32:34
  TRACK 89 AUDIO
    TITLE "0:"
    INDEX 01 03:34:44
  TRACK 90 AUDIO
    TITLE "7:cjc037_0232"
    INDEX 01 03:38:05
  TRACK 91 AUDIO
    TITLE "0:"
    INDEX 01 03:39:73
  TRACK 92 AUDIO
    TITLE "4:cjc037_0233"
    INDEX 01 03:42:32
  TRACK 93 AUDIO
    TITLE "0:"
    INDEX 01 03:43:73
  TRACK 94 AUDIO
    TITLE "5:cjc037_0234"
    INDEX 01 03:44:50
  TRACK 95 AUDIO
    TITLE "0:"
    INDEX 01 03:47:39
  TRACK 96 AUDIO
    TITLE "6:cjc037_0235"
    INDEX 01 03:50:73
  TRACK 97 AUDIO
    TITLE "0:"
    INDEX 01 03:53:18
  TRACK 98 AUDIO
    TITLE "7:cjc037_0236"
    INDEX 01 03:56:54
  TRACK 99 AUDIO
    TITLE "0:"
    INDEX 01 03:58:51
